<mxfile host="app.diagrams.net" agent="Mozilla/5.0 (Windows NT 10.0; Win64; x64) AppleWebKit/537.36 (KHTML, like Gecko) Chrome/122.0.0.0 Safari/537.36" version="24.7.16">
  <diagram name="Страница — 1" id="7_ZO2t9NrD6P042FndTt">
    <mxGraphModel dx="921" dy="1679" grid="1" gridSize="10" guides="1" tooltips="1" connect="1" arrows="1" fold="1" page="1" pageScale="1" pageWidth="827" pageHeight="1169" math="0" shadow="0">
      <root>
        <mxCell id="0" />
        <mxCell id="1" parent="0" />
        <mxCell id="5Ntqq7QkdPeLF5GWI5DQ-3" style="edgeStyle=orthogonalEdgeStyle;rounded=0;orthogonalLoop=1;jettySize=auto;html=1;entryX=0.5;entryY=0;entryDx=0;entryDy=0;" edge="1" parent="1" source="5Ntqq7QkdPeLF5GWI5DQ-1" target="5Ntqq7QkdPeLF5GWI5DQ-2">
          <mxGeometry relative="1" as="geometry" />
        </mxCell>
        <mxCell id="5Ntqq7QkdPeLF5GWI5DQ-1" value="Начало" style="rounded=1;whiteSpace=wrap;html=1;" vertex="1" parent="1">
          <mxGeometry x="384" y="-1150" width="60" height="30" as="geometry" />
        </mxCell>
        <mxCell id="5Ntqq7QkdPeLF5GWI5DQ-6" style="edgeStyle=orthogonalEdgeStyle;rounded=0;orthogonalLoop=1;jettySize=auto;html=1;entryX=0.5;entryY=0;entryDx=0;entryDy=0;" edge="1" parent="1" source="5Ntqq7QkdPeLF5GWI5DQ-2" target="5Ntqq7QkdPeLF5GWI5DQ-5">
          <mxGeometry relative="1" as="geometry" />
        </mxCell>
        <mxCell id="5Ntqq7QkdPeLF5GWI5DQ-2" value="&lt;font style=&quot;font-size: 10px;&quot;&gt;ввод a, b&lt;/font&gt;" style="shape=parallelogram;perimeter=parallelogramPerimeter;whiteSpace=wrap;html=1;fixedSize=1;" vertex="1" parent="1">
          <mxGeometry x="374" y="-1090" width="80" height="30" as="geometry" />
        </mxCell>
        <mxCell id="5Ntqq7QkdPeLF5GWI5DQ-11" style="edgeStyle=orthogonalEdgeStyle;rounded=0;orthogonalLoop=1;jettySize=auto;html=1;entryX=1;entryY=0.5;entryDx=0;entryDy=0;" edge="1" parent="1" source="5Ntqq7QkdPeLF5GWI5DQ-5" target="5Ntqq7QkdPeLF5GWI5DQ-10">
          <mxGeometry relative="1" as="geometry" />
        </mxCell>
        <mxCell id="5Ntqq7QkdPeLF5GWI5DQ-13" style="edgeStyle=orthogonalEdgeStyle;rounded=0;orthogonalLoop=1;jettySize=auto;html=1;" edge="1" parent="1" source="5Ntqq7QkdPeLF5GWI5DQ-5">
          <mxGeometry relative="1" as="geometry">
            <mxPoint x="414" y="-950" as="targetPoint" />
          </mxGeometry>
        </mxCell>
        <mxCell id="5Ntqq7QkdPeLF5GWI5DQ-5" value="&lt;font style=&quot;font-size: 9px;&quot;&gt;&amp;nbsp;a &amp;amp;&amp;amp; b &amp;gt; 0?&lt;/font&gt;" style="rhombus;whiteSpace=wrap;html=1;" vertex="1" parent="1">
          <mxGeometry x="374" y="-1030" width="80" height="50" as="geometry" />
        </mxCell>
        <mxCell id="5Ntqq7QkdPeLF5GWI5DQ-12" style="edgeStyle=orthogonalEdgeStyle;rounded=0;orthogonalLoop=1;jettySize=auto;html=1;" edge="1" parent="1" source="5Ntqq7QkdPeLF5GWI5DQ-10">
          <mxGeometry relative="1" as="geometry">
            <mxPoint x="420" y="-1110" as="targetPoint" />
            <Array as="points">
              <mxPoint x="320" y="-1110" />
            </Array>
          </mxGeometry>
        </mxCell>
        <mxCell id="5Ntqq7QkdPeLF5GWI5DQ-10" value="&lt;font style=&quot;font-size: 11px;&quot;&gt;введите&lt;/font&gt;&lt;div style=&quot;font-size: 11px;&quot;&gt;&lt;font style=&quot;font-size: 11px;&quot;&gt;a и b &amp;gt; 0&lt;/font&gt;&lt;/div&gt;" style="rounded=0;whiteSpace=wrap;html=1;" vertex="1" parent="1">
          <mxGeometry x="290" y="-1022.5" width="60" height="35" as="geometry" />
        </mxCell>
        <mxCell id="5Ntqq7QkdPeLF5GWI5DQ-15" style="edgeStyle=orthogonalEdgeStyle;rounded=0;orthogonalLoop=1;jettySize=auto;html=1;" edge="1" parent="1" source="5Ntqq7QkdPeLF5GWI5DQ-14" target="5Ntqq7QkdPeLF5GWI5DQ-16">
          <mxGeometry relative="1" as="geometry">
            <mxPoint x="414" y="-890" as="targetPoint" />
          </mxGeometry>
        </mxCell>
        <mxCell id="5Ntqq7QkdPeLF5GWI5DQ-14" value="perim = 2*(a+b)" style="rounded=0;whiteSpace=wrap;html=1;" vertex="1" parent="1">
          <mxGeometry x="371" y="-950" width="86" height="30" as="geometry" />
        </mxCell>
        <mxCell id="5Ntqq7QkdPeLF5GWI5DQ-18" style="edgeStyle=orthogonalEdgeStyle;rounded=0;orthogonalLoop=1;jettySize=auto;html=1;entryX=0.5;entryY=0;entryDx=0;entryDy=0;" edge="1" parent="1" source="5Ntqq7QkdPeLF5GWI5DQ-16" target="5Ntqq7QkdPeLF5GWI5DQ-17">
          <mxGeometry relative="1" as="geometry" />
        </mxCell>
        <mxCell id="5Ntqq7QkdPeLF5GWI5DQ-16" value="square = a*b" style="rounded=0;whiteSpace=wrap;html=1;" vertex="1" parent="1">
          <mxGeometry x="371" y="-890" width="86" height="30" as="geometry" />
        </mxCell>
        <mxCell id="5Ntqq7QkdPeLF5GWI5DQ-19" style="edgeStyle=orthogonalEdgeStyle;rounded=0;orthogonalLoop=1;jettySize=auto;html=1;" edge="1" parent="1" source="5Ntqq7QkdPeLF5GWI5DQ-17" target="5Ntqq7QkdPeLF5GWI5DQ-20">
          <mxGeometry relative="1" as="geometry">
            <mxPoint x="414" y="-760" as="targetPoint" />
          </mxGeometry>
        </mxCell>
        <mxCell id="5Ntqq7QkdPeLF5GWI5DQ-17" value="вывод perim,&lt;div&gt;square&lt;/div&gt;" style="shape=parallelogram;perimeter=parallelogramPerimeter;whiteSpace=wrap;html=1;fixedSize=1;" vertex="1" parent="1">
          <mxGeometry x="361" y="-830" width="106" height="40" as="geometry" />
        </mxCell>
        <mxCell id="5Ntqq7QkdPeLF5GWI5DQ-20" value="конец" style="rounded=1;whiteSpace=wrap;html=1;" vertex="1" parent="1">
          <mxGeometry x="381" y="-760" width="66" height="20" as="geometry" />
        </mxCell>
      </root>
    </mxGraphModel>
  </diagram>
</mxfile>
